<svg width="27" height="27" viewBox="0 0 27 27" fill="none" xmlns="http://www.w3.org/2000/svg">
<g clip-path="url(#clip0_391_248)">
<path d="M16.4205 7.59912H10.3672C10.0309 7.59911 9.69783 7.66535 9.38711 7.79405C9.07639 7.92276 8.79406 8.1114 8.55625 8.34921C8.31843 8.58703 8.12979 8.86936 8.00109 9.18008C7.87238 9.4908 7.80615 9.82383 7.80615 10.1602V16.2134C7.80615 16.8927 8.07597 17.5441 8.55626 18.0244C8.79408 18.2622 9.0764 18.4508 9.38712 18.5795C9.69784 18.7082 10.0309 18.7745 10.3672 18.7745H16.4205C17.0997 18.7744 17.7511 18.5046 18.2314 18.0243C18.7116 17.544 18.9814 16.8926 18.9814 16.2134V10.1602C18.9815 9.82383 18.9152 9.49081 18.7865 9.18009C18.6578 8.86937 18.4692 8.58705 18.2314 8.34923C17.9936 8.11142 17.7112 7.92277 17.4005 7.79407C17.0898 7.66536 16.7568 7.59912 16.4205 7.59912ZM13.3938 16.7097C12.6971 16.7097 12.0159 16.5031 11.4366 16.116C10.8573 15.7289 10.4057 15.1787 10.1391 14.5349C9.87245 13.8912 9.80268 13.1829 9.93862 12.4995C10.0745 11.8161 10.4101 11.1884 10.9028 10.6957C11.3954 10.203 12.0232 9.86752 12.7065 9.73159C13.3899 9.59565 14.0983 9.66542 14.742 9.93206C15.3857 10.1987 15.9359 10.6502 16.323 11.2296C16.7101 11.8089 16.9167 12.49 16.9167 13.1868C16.9167 13.6494 16.8256 14.1075 16.6486 14.5349C16.4715 14.9624 16.212 15.3507 15.8849 15.6779C15.5578 16.005 15.1694 16.2645 14.742 16.4415C14.3146 16.6186 13.8565 16.7097 13.3938 16.7097ZM17.0636 10.3836C16.8978 10.3836 16.7358 10.3344 16.5979 10.2423C16.4601 10.1502 16.3526 10.0193 16.2892 9.86619C16.2258 9.71305 16.2092 9.54452 16.2415 9.38194C16.2738 9.21935 16.3536 9.07 16.4709 8.95278C16.5881 8.83556 16.7374 8.75573 16.9 8.72339C17.0626 8.69105 17.2311 8.70764 17.3843 8.77107C17.5374 8.83451 17.6683 8.94194 17.7604 9.07977C17.8525 9.2176 17.9017 9.37965 17.9017 9.54542C17.9017 9.7677 17.8134 9.98087 17.6562 10.1381C17.499 10.2952 17.2859 10.3835 17.0636 10.3836Z" fill="white"/>
<path d="M13.3939 10.897C12.941 10.897 12.4983 11.0313 12.1217 11.2829C11.7451 11.5345 11.4516 11.8922 11.2783 12.3106C11.105 12.729 11.0596 13.1894 11.148 13.6336C11.2364 14.0778 11.4545 14.4859 11.7747 14.8061C12.095 15.1264 12.503 15.3445 12.9472 15.4328C13.3914 15.5212 13.8518 15.4758 14.2703 15.3025C14.6887 15.1292 15.0463 14.8357 15.2979 14.4591C15.5496 14.0825 15.6839 13.6398 15.6839 13.1869C15.6839 12.5796 15.4426 11.9971 15.0132 11.5677C14.5837 11.1382 14.0013 10.897 13.3939 10.897Z" fill="#EDEDED"/>
<path d="M13.3939 0C6.11098 0 0.207031 5.90395 0.207031 13.1869C0.207031 20.4698 6.11098 26.3737 13.3939 26.3737C20.6768 26.3737 26.5807 20.4698 26.5807 13.1869C26.5807 5.90395 20.6768 0 13.3939 0ZM20.262 16.0972C20.262 17.1469 19.845 18.1535 19.1028 18.8957C18.3606 19.638 17.3539 20.0549 16.3043 20.055H10.4835C9.43385 20.0549 8.4272 19.638 7.68497 18.8957C6.94275 18.1535 6.52575 17.1469 6.5257 16.0972V10.2765C6.52574 9.22681 6.94273 8.22016 7.68496 7.47794C8.42719 6.73573 9.43385 6.31874 10.4835 6.31872H16.3043C17.3539 6.31876 18.3606 6.73575 19.1028 7.47796C19.845 8.22018 20.262 9.22682 20.262 10.2765V16.0972Z" fill="white"/>
</g>
<defs>
<clipPath id="clip0_391_248">
<rect width="26.3737" height="26.3737" fill="white" transform="translate(0.207031)"/>
</clipPath>
</defs>
</svg>
