<svg width="160" height="72" viewBox="0 0 160 72" fill="none" xmlns="http://www.w3.org/2000/svg">
<g clip-path="url(#clip0_94_7)">
<path d="M35.654 0.186646C15.9638 0.186646 0 16.1801 0 35.9082C0 55.6362 15.9638 71.6244 35.654 71.6244C55.3442 71.6244 71.3097 55.6327 71.3097 35.9082C71.3097 16.1836 55.3459 0.186646 35.654 0.186646ZM35.654 45.943C30.1189 45.943 25.6331 41.4512 25.6331 35.9064C25.6331 30.3616 30.1206 25.8663 35.654 25.8663C41.1874 25.8663 45.6766 30.3616 45.6766 35.9064C45.6766 41.4512 41.1891 45.943 35.654 45.943Z" fill="#FFD700"/>
<path d="M6.89376 45.376C14.0987 45.376 14.0987 39.9122 21.3002 39.9122C24.4114 39.9122 26.1779 40.93 27.7634 42.0868C26.431 40.3806 25.6348 38.2359 25.6348 35.9064C25.6348 30.3616 30.1223 25.8663 35.6557 25.8663C41.189 25.8663 45.6765 30.3616 45.6765 35.9064C45.6765 38.324 44.8205 40.5461 43.3967 42.2805C45.0525 41.0462 46.8384 39.9122 50.1201 39.9122C57.3251 39.9122 57.3251 45.376 64.53 45.376C67.3161 45.376 69.0263 44.559 70.4888 43.5589C71.0249 41.0902 71.3114 38.5318 71.3114 35.9064C71.3132 16.1801 55.3494 0.188416 35.6574 0.188416C15.9655 0.188416 0.00341797 16.1801 0.00341797 35.9082C0.00341797 38.5018 0.281141 41.0303 0.806705 43.4673C2.30078 44.5097 4.02513 45.3778 6.89376 45.3778" fill="#421914"/>
<path d="M37.2781 17.8123C37.2711 17.7577 37.243 17.6521 37.243 17.6521C36.8492 16.254 35.0511 9.68443 35.0511 9.68443H35.0493C34.8595 8.94313 34.3919 8.28811 33.7521 7.8708C33.1105 7.44468 32.3213 7.27916 31.5637 7.39714L30.5934 7.53624H30.5987C29.0308 7.78275 27.9199 9.15971 27.9762 10.7145L28.0394 12.7165H28.0412L28.1748 18.6064V18.5994C28.1748 18.5994 28.1941 19.1681 28.2029 19.2034C28.326 19.8073 28.8919 20.2158 29.5054 20.1331L30.5741 19.9763C31.1542 19.8936 31.5725 19.3953 31.5743 18.8248V18.8283L31.576 18.293C31.5848 17.9919 31.7061 17.6979 32.0365 17.6486L33.1703 17.483C33.6712 17.4091 33.7697 17.9039 33.8189 18.05L33.9472 18.4814C34.0667 18.8723 34.3989 19.1787 34.7927 19.2738C34.9263 19.3178 35.088 19.316 35.2233 19.2949C35.2233 19.2949 36.2709 19.1452 36.292 19.1417C36.9283 19.0502 37.373 18.4409 37.2799 17.807M32.1332 14.3523C31.8028 14.3875 31.4407 14.2784 31.3264 13.935C31.2456 13.6867 31.2965 13.3962 31.3282 13.1409C31.3862 12.6866 31.4758 12.2323 31.5743 11.7833C31.5743 11.7833 31.5901 11.6882 31.6323 11.6248C31.6674 11.5685 31.75 11.5438 31.8045 11.5861C31.8783 11.6301 31.9258 11.7322 31.9258 11.7322C32.1473 12.1267 32.3565 12.5281 32.5428 12.9419C32.6482 13.1726 32.7836 13.4349 32.7836 13.6955C32.7836 14.0671 32.4654 14.2872 32.1332 14.3506" fill="#FFD700"/>
<path d="M52.6002 28.6026C52.6442 28.5691 52.7198 28.4899 52.7198 28.4899C53.7006 27.4176 58.334 22.4345 58.334 22.4345C58.8648 21.8816 59.1707 21.1403 59.1935 20.3761C59.2146 19.6031 58.9457 18.846 58.443 18.2596H58.4465L57.8154 17.5077V17.513C56.7872 16.3069 55.0312 16.0815 53.741 16.946L52.0712 18.0536L47.1389 21.26L47.1442 21.2565L46.8542 21.4467C46.8102 21.4713 46.6731 21.5717 46.6485 21.5981C46.2003 22.0207 46.1493 22.718 46.5431 23.1987L47.2374 24.0262C47.6135 24.477 48.2551 24.5686 48.742 24.2728L48.7385 24.278L49.192 23.9981C49.4539 23.8449 49.7685 23.7938 49.9812 24.0509L50.7159 24.9295C51.0429 25.3187 50.6755 25.6638 50.5771 25.7818L50.2783 26.1198C50.0076 26.428 49.9214 26.8682 50.0462 27.2591C50.0814 27.3929 50.1693 27.5285 50.2537 27.6341C50.2537 27.6341 50.9339 28.4476 50.948 28.4635C51.361 28.9565 52.1098 29.0146 52.5985 28.6043M52.8252 22.4045C52.6248 22.1439 52.5264 21.7742 52.7567 21.4977C52.9254 21.297 53.2014 21.1878 53.4299 21.0822C53.8482 20.8938 54.2806 20.7283 54.7148 20.5803C54.7148 20.5803 54.8027 20.5416 54.88 20.5469H54.8783C54.9451 20.5469 55.0066 20.605 55.0013 20.6719C55.0031 20.7582 54.9451 20.8533 54.9451 20.8533C54.7236 21.2459 54.4898 21.6386 54.2402 22.0136C54.0978 22.2249 53.9467 22.4785 53.7252 22.6141C53.4088 22.8113 53.0572 22.6546 52.8252 22.4045Z" fill="#FFD700"/>
<path d="M47.4694 9.62636C46.109 8.97486 44.6272 8.50121 43.5479 8.20011C43.5479 8.20011 43.5479 8.20011 43.5479 8.20187C42.8677 8.0029 42.1294 8.08037 41.5054 8.41669C40.8603 8.76181 40.3787 9.36576 40.1801 10.0736L38.4224 16.5675V16.5622L38.0321 17.9902C37.8546 18.5871 38.171 19.2228 38.7598 19.4305L39.7811 19.7809C40.3611 19.9817 40.9939 19.6841 41.24 19.1259V19.1294C41.5125 18.5572 41.6988 17.9462 41.966 17.3704V17.3669C42.0011 17.3052 42.0697 17.1855 42.1822 17.2242C42.2226 17.2454 42.2507 17.2982 42.2595 17.344C42.4072 17.9268 42.597 18.5026 42.8343 19.0555C42.9819 19.3936 43.1454 19.7246 43.3265 20.0486C43.5268 20.4025 43.7395 20.7617 43.9838 21.0857C44.0436 21.1649 44.1016 21.2459 44.1649 21.3234C44.3969 21.6456 44.8434 21.746 45.1914 21.5611C45.3883 21.4713 45.5711 21.3463 45.7521 21.2283C45.9103 21.128 46.0703 21.0276 46.2285 20.9219C46.3955 20.8128 46.566 20.7018 46.7294 20.5839C46.9509 20.4025 47.0634 20.1155 47.0212 19.832C46.9773 19.5468 46.7927 19.3795 46.5835 19.1999C46.0896 18.7738 45.6098 18.3142 45.2231 17.7859C46.7734 17.8247 48.3606 17.064 49.3309 14.9792H49.3326C50.5595 12.3398 49.3045 10.5032 47.4642 9.62108M43.3616 13.7854L44.0436 11.7904C44.3846 11.8309 44.7309 11.933 45.0385 12.0897C45.2758 12.213 45.4463 12.3961 45.4568 12.6778C45.4726 13.0723 45.2916 13.5177 45.0543 13.8241C44.8416 14.0953 44.527 14.2907 44.1737 14.2362C44.1491 14.2326 44.1192 14.2256 44.0911 14.2168C43.5356 14.0742 43.3598 13.7854 43.3598 13.7854" fill="#FFD700"/>
<path d="M13.9845 19.6312C13.459 19.272 12.7734 19.2051 12.1881 19.4534C11.8963 19.5784 11.6397 19.7756 11.4446 20.0257C11.4059 20.075 11.1229 20.4571 11.1352 20.4729C10.7099 21.1279 10.7327 22.0066 11.202 22.6352C11.3796 22.8676 11.5993 23.0278 11.8401 23.1846C12.4852 23.5966 19.2507 27.9423 19.4142 28.0497C19.9327 28.3789 20.613 28.2257 20.9803 27.745C21.0506 27.65 21.6483 26.7625 21.6483 26.766C21.8944 26.4086 21.9154 25.9226 21.7115 25.5405C21.6149 25.3644 21.4778 25.2341 21.3178 25.1179C21.1508 24.9911 14.032 19.6665 13.9845 19.633" fill="#FFD700"/>
<path d="M63.4807 34.2548C64.0221 33.9026 64.342 33.2652 64.3156 32.6207C64.356 31.6505 64.1908 30.6768 63.9219 29.7471C63.6494 28.8156 63.2627 27.9071 62.7108 27.1059C62.2907 26.5019 61.7546 25.9596 61.0866 25.6339C60.5294 25.3592 59.9107 25.2553 59.2937 25.2975C58.5274 25.3504 57.7592 25.6057 57.0807 25.9614C57.0807 25.9614 56.6202 26.222 56.4251 26.3928C56.1878 26.5935 55.998 26.8383 55.8661 27.1217C55.613 27.5936 55.4584 28.2275 55.5849 29.0622V29.0569C55.606 29.365 55.6833 29.6714 55.7484 29.969C55.8398 30.3916 55.9435 30.8054 56.0507 31.2227C56.165 31.6541 56.2968 32.0837 56.3829 32.5221C56.4075 32.6472 56.4409 32.7951 56.3724 32.9113C56.3073 33.0222 56.1527 33.0715 56.0296 33.0381C55.7501 32.9641 55.6078 32.5767 55.5058 32.3461C55.3582 32.0115 55.2597 31.6558 55.1683 31.3037C54.9328 30.3986 54.9609 30.3387 54.6955 29.4407C54.5443 29.004 54.0557 28.6941 53.4914 28.9354L52.1503 29.6256C51.7759 29.777 51.5702 30.1785 51.6212 30.5729C51.6898 31.1065 51.7812 31.6347 51.8937 32.1594C52.1714 33.2282 52.3753 33.6561 52.7251 34.4309C52.7549 34.496 52.813 34.6333 52.813 34.6333C53.059 35.1088 53.3403 35.5595 53.7006 35.9592C54.0996 36.4047 54.576 36.778 55.156 36.9629C55.8064 37.1707 56.506 37.1284 57.1563 36.9418C57.9702 36.7041 58.8068 36.292 59.357 35.63C59.7086 35.2091 59.8386 34.6439 59.8861 34.1069C59.9951 32.9289 59.7648 31.721 59.4765 30.58C59.3974 30.2665 59.3307 30.013 59.2568 29.6996C59.2182 29.5393 59.1443 29.2893 59.2234 29.1379C59.285 29.0269 59.4291 28.9864 59.5592 28.9688C59.8211 28.9195 60.0707 29.3527 60.206 29.8844C60.4503 30.8318 60.5839 31.8002 60.7333 32.7634C60.7474 32.8813 60.7738 32.9993 60.8019 33.1138C60.9583 33.6138 61.1306 34.1421 61.6034 34.3763C62.0745 34.6105 62.637 34.6333 63.1256 34.4379C63.1256 34.4379 63.3717 34.3234 63.4772 34.253" fill="#FFD700"/>
<path d="M8.43706 27.2151C7.86052 28.6572 7.45976 30.3511 7.21719 31.5783H7.22422C6.86388 32.9905 7.69002 34.4414 9.09797 34.8411C9.14016 34.8517 17.2451 36.5333 17.2451 36.5333C17.8445 36.6653 18.4509 36.3149 18.6232 35.7198H18.6267L18.922 34.6915C19.0925 34.0893 18.7638 33.4642 18.182 33.2634C18.0624 33.2141 16.3486 32.6436 16.3486 32.6436C16.0709 32.5362 15.9584 32.4799 16.092 32.0238C16.194 31.691 16.9164 29.9971 16.4436 28.1236C16.1641 27.0302 15.1042 25.9385 13.4308 25.3222C10.3266 24.1794 9.19992 25.3275 8.43882 27.2151M13.1425 30.6891C13.0248 31.2561 12.7488 31.4428 12.7488 31.4428L10.7239 30.8635C10.7239 30.8635 10.752 30.4127 10.9172 29.9919C11.0649 29.6133 11.2407 29.2506 12.051 29.4601C12.7629 29.6432 13.2638 30.1045 13.1425 30.6891Z" fill="#FFD700"/>
<path d="M23.1054 11.4787C22.1105 11.0121 20.917 11.204 19.945 11.6337C18.4017 12.3169 16.9656 13.7044 16.4805 15.356C16.0164 16.946 16.2449 18.728 17.0851 20.156C17.3576 20.6173 17.6845 21.0681 18.0396 21.4678C19.0046 22.5525 20.0768 23.2656 21.0242 23.5227C22.8294 24.0157 24.2866 23.4575 25.3887 22.7638C26.1516 22.2848 26.8634 21.7108 27.4751 20.8621C27.4786 20.8586 27.4822 20.8533 27.4822 20.8498V20.8462C27.7441 20.4782 27.7757 19.9711 27.5244 19.5661C27.5191 19.5591 27.1552 19.015 27.0638 18.8917C26.7281 18.3529 26.0162 18.1892 25.4801 18.5255C25.408 18.5677 25.3377 18.6259 25.2762 18.6822C24.7014 19.1893 23.5554 20.1296 22.4832 19.9341C21.5814 19.7686 20.4266 18.9093 20.1893 17.3915C20.0557 16.5727 20.4881 15.6747 21.2404 15.305C21.889 14.9845 22.2283 15.2222 22.5253 15.6061C22.9982 16.2752 23.9122 16.4671 24.6118 16.0251C25.3026 15.592 25.5328 14.6992 25.1549 13.9896C25.1549 13.9896 25.1567 13.9861 25.1584 13.9896C24.7858 13.2096 24.0968 11.9418 23.1054 11.477" fill="#FFD700"/>
<path d="M90.3092 21.0276H84.6001V0.230652H90.2512V3.20642H87.6568V9.0118H90.0508V12.0157H87.6568V17.9954H90.3092V21.0276Z" fill="white"/>
<path d="M91.26 21.0276V0.230652H94.4327V17.8792H97.3154V21.0276H91.26Z" fill="white"/>
<path d="M106.946 18.6012C106.849 19.5643 106.614 20.2475 106.24 20.6525C105.865 21.0575 105.341 21.2582 104.668 21.2582C103.745 21.2582 103.053 20.98 102.592 20.4201C102.13 19.8619 101.9 18.9463 101.9 17.6767V3.61142C101.9 2.34011 102.246 1.42097 102.937 0.852231C103.629 0.285251 104.561 0 105.733 0C106.906 0 107.857 0.279968 108.53 0.838145C109.203 1.39632 109.539 2.29257 109.539 3.52514V8.37792H106.366V3.84384C106.366 3.40188 106.313 3.11135 106.208 2.97753C106.102 2.8437 105.934 2.77503 105.703 2.77503C105.473 2.77503 105.304 2.85779 105.199 3.01979C105.093 3.18354 105.041 3.4776 105.041 3.90019V17.101C105.041 17.506 105.108 17.8088 105.243 18.0113C105.376 18.2138 105.57 18.3142 105.819 18.3142C106.088 18.3142 106.285 18.2085 106.41 17.9972C106.535 17.7859 106.598 17.4197 106.598 16.9002V13.2606H105.703V9.93976H109.509V21.0311H107.347L106.943 18.6047L106.946 18.6012Z" fill="white"/>
<path d="M111.486 20.4077C110.862 19.8408 110.55 18.8917 110.55 17.5623V0.230652H113.664V17.2436C113.664 17.6098 113.703 17.8687 113.78 18.0236C113.858 18.1786 114.021 18.2543 114.271 18.2543C114.501 18.2543 114.656 18.1821 114.731 18.0377C114.809 17.8933 114.847 17.6292 114.847 17.2436V0.230652H117.962V17.5623C117.962 18.8917 117.646 19.839 117.011 20.4077C116.376 20.9765 115.464 21.26 114.272 21.26C113.081 21.26 112.114 20.9765 111.49 20.4077H111.486Z" fill="white"/>
<path d="M119.82 20.4218C119.252 19.8637 118.969 18.9586 118.969 17.7067V12.507H122.084V17.4179C122.084 17.7841 122.117 18.0342 122.184 18.1698C122.251 18.3053 122.4 18.3723 122.63 18.3723C122.861 18.3723 123.015 18.3053 123.093 18.1698C123.17 18.0359 123.209 17.7841 123.209 17.4179V13.2589C123.209 12.7975 123.084 12.4507 122.834 12.2182C122.585 11.9876 122.133 11.6601 121.479 11.2357C120.672 10.7163 120.071 10.2109 119.677 9.71965C119.284 9.22838 119.087 8.53991 119.087 7.65422V3.32087C119.087 2.20452 119.389 1.37166 119.996 0.822288C120.6 0.272916 121.509 -0.00177002 122.72 -0.00177002C123.854 -0.00177002 124.71 0.267634 125.286 0.806441C125.863 1.34525 126.151 2.08655 126.151 3.03034V7.94123H123.21V3.60789C123.21 3.24164 123.172 2.99689 123.094 2.87187C123.017 2.74685 122.873 2.68346 122.662 2.68346C122.47 2.68346 122.33 2.74685 122.244 2.87187C122.158 2.99689 122.114 3.2434 122.114 3.60789V7.30558C122.114 7.42179 122.128 7.53273 122.158 7.63837C122.186 7.74402 122.219 7.83558 122.258 7.91306C122.354 8.06801 122.541 8.24585 122.82 8.44658C123.098 8.64908 123.499 8.93257 124.017 9.29882C124.747 9.77952 125.306 10.2567 125.689 10.7286C126.074 11.2005 126.265 11.9083 126.265 12.8521V17.7049C126.265 18.9568 125.967 19.8619 125.372 20.4201C124.777 20.9783 123.854 21.2582 122.604 21.2582C121.354 21.2582 120.387 20.98 119.821 20.4201L119.82 20.4218Z" fill="white"/>
<path d="M131.657 3.20642V21.0293H128.572V3.20642H126.726V0.230652H133.53V3.20642H131.657Z" fill="white"/>
<path d="M135.145 20.4078C134.453 19.8408 134.108 18.8917 134.108 17.5623V3.66775C134.108 2.43519 134.455 1.51605 135.145 0.908568C135.838 0.30285 136.77 -0.00177002 137.942 -0.00177002C139.114 -0.00177002 140.065 0.301089 140.739 0.908568C141.412 1.51429 141.748 2.43519 141.748 3.66775V17.5623C141.748 18.8917 141.396 19.839 140.695 20.4078C139.993 20.9765 139.065 21.26 137.912 21.26C136.759 21.26 135.836 20.9765 135.144 20.4078H135.145ZM138.446 18.0676C138.533 17.9039 138.577 17.6098 138.577 17.1872V3.87025C138.577 3.44765 138.533 3.15888 138.446 3.00393C138.36 2.85074 138.183 2.77326 137.914 2.77326C137.664 2.77326 137.496 2.85602 137.409 3.01802C137.323 3.18177 137.279 3.46526 137.279 3.87025V17.1855C137.279 17.6098 137.327 17.9039 137.423 18.0659C137.52 18.2296 137.692 18.3106 137.942 18.3106C138.192 18.3106 138.36 18.2296 138.446 18.0659V18.0676Z" fill="white"/>
<path d="M84.5981 25.5071H88.3755C89.5673 25.5071 90.4954 25.7677 91.158 26.2871C91.8207 26.8066 92.1529 27.731 92.1529 29.0604V42.7524C92.1529 44.0818 91.8014 45.0063 91.1 45.5257C90.3987 46.0451 89.4618 46.3057 88.2894 46.3057H84.5981V25.5088V25.5071ZM87.7129 28.136V43.5325H88.1734C88.4423 43.5325 88.6445 43.4409 88.778 43.2578C88.9116 43.0747 88.9802 42.8105 88.9802 42.4637V29.1484C88.9802 28.7628 88.9116 28.4987 88.778 28.3543C88.6427 28.2099 88.4406 28.1377 88.1734 28.1377H87.7129V28.136Z" fill="white"/>
<path d="M99.0153 46.304H93.3062V25.5071H98.9573V28.4828H96.3629V34.2882H98.7569V37.2922H96.3629V43.2719H99.0153V46.304Z" fill="white"/>
<path d="M104.508 45.6824C103.903 45.1154 103.599 44.1558 103.599 42.8088V28.8861C103.599 27.6148 103.94 26.6956 104.622 26.1269C105.304 25.5599 106.222 25.2747 107.377 25.2747C108.532 25.2747 109.481 25.5493 110.115 26.0987C110.75 26.6481 111.066 27.5479 111.066 28.7998V33.9995H107.981V29.1185C107.981 28.7135 107.937 28.4353 107.851 28.2804C107.765 28.1272 107.596 28.0497 107.347 28.0497C107.136 28.0497 106.987 28.1325 106.9 28.2944C106.814 28.4582 106.77 28.7523 106.77 29.1748V42.4619C106.77 42.8863 106.809 43.175 106.886 43.3282C106.964 43.4832 107.117 43.5589 107.347 43.5589C107.596 43.5589 107.76 43.4867 107.837 43.3423C107.915 43.1979 107.962 42.9232 107.981 42.52V37.176H111.096V42.8669C111.096 44.2157 110.769 45.163 110.115 45.7124C109.461 46.2617 108.539 46.5347 107.347 46.5347C106.058 46.5347 105.113 46.2512 104.506 45.6824H104.508Z" fill="white"/>
<path d="M113.172 45.6824C112.48 45.1154 112.135 44.1664 112.135 42.8369V28.9424C112.135 27.7098 112.481 26.7907 113.172 26.1832C113.865 25.5775 114.796 25.2729 115.969 25.2729C117.141 25.2729 118.092 25.5757 118.765 26.1832C119.438 26.7889 119.774 27.7098 119.774 28.9424V42.8369C119.774 44.1664 119.423 45.1137 118.721 45.6824C118.02 46.2512 117.092 46.5346 115.939 46.5346C114.786 46.5346 113.863 46.2512 113.17 45.6824H113.172ZM116.473 43.3423C116.559 43.1785 116.603 42.8845 116.603 42.4619V29.1467C116.603 28.7241 116.559 28.4353 116.473 28.2803C116.387 28.1272 116.209 28.0497 115.941 28.0497C115.691 28.0497 115.522 28.1324 115.436 28.2944C115.35 28.4582 115.306 28.7417 115.306 29.1467V42.4619C115.306 42.8862 115.353 43.1803 115.45 43.3423C115.547 43.5061 115.719 43.5871 115.969 43.5871C116.218 43.5871 116.387 43.5061 116.473 43.3423Z" fill="white"/>
<path d="M123.697 46.304H120.929V25.5071H123.235L125.397 34.202L127.559 25.5071H129.895V46.304H127.127V37.5228L127.675 32.5538L127.415 33.9695L125.685 40.3824H125.137L123.407 33.9995L123.177 32.7L123.696 37.6109V46.3057L123.697 46.304Z" fill="white"/>
<path d="M136.817 46.304H131.108V25.5071H136.759V28.4828H134.165V34.2882H136.559V37.2922H134.165V43.2719H136.817V46.304Z" fill="white"/>
<path d="M140.739 37.956V46.304H137.768V25.5071H141.517C142.786 25.5071 143.679 25.743 144.2 26.2149C144.718 26.6868 144.978 27.4616 144.978 28.541V34.0576C144.978 34.7126 144.878 35.2232 144.676 35.5877C144.474 35.954 144.161 36.2234 143.739 36.3959C144.18 36.5509 144.504 36.8009 144.706 37.146C144.908 37.4929 145.008 37.993 145.008 38.648V44.9165C145.008 45.2246 145.047 45.494 145.124 45.7247C145.202 45.9553 145.316 46.149 145.47 46.3022H142.3C142.164 46.2441 142.073 46.0909 142.025 45.8409C141.978 45.5909 141.953 45.3109 141.953 45.0027V38.9086C141.953 38.5423 141.895 38.2923 141.781 38.1567C141.665 38.0229 141.445 37.9542 141.118 37.9542H140.744L140.739 37.956ZM140.739 28.1342V35.0383H141.229C141.517 35.0383 141.725 34.9855 141.85 34.8799C141.974 34.7742 142.038 34.5858 142.038 34.3164V28.8861C142.038 28.5973 141.98 28.4001 141.865 28.2944C141.749 28.1888 141.538 28.136 141.231 28.136H140.74L140.739 28.1342Z" fill="white"/>
<path d="M146.808 45.6965C146.241 45.1383 145.958 44.2333 145.958 42.9813V37.7817H149.072V42.6926C149.072 43.0588 149.106 43.3088 149.172 43.4444C149.239 43.58 149.389 43.6469 149.619 43.6469C149.849 43.6469 150.004 43.58 150.081 43.4444C150.159 43.3106 150.197 43.0588 150.197 42.6926V38.5335C150.197 38.0722 150.072 37.7253 149.823 37.4929C149.573 37.2622 149.121 36.9347 148.468 36.5104C147.661 35.9909 147.06 35.4856 146.666 34.9943C146.272 34.503 146.075 33.8146 146.075 32.9289V28.5955C146.075 27.4792 146.378 26.6463 146.984 26.0969C147.589 25.5476 148.497 25.2729 149.709 25.2729C150.842 25.2729 151.698 25.5423 152.275 26.0811C152.851 26.6199 153.14 27.3612 153.14 28.305V33.2159H150.199V28.8825C150.199 28.5163 150.16 28.2715 150.083 28.1465C150.006 28.0215 149.861 27.9581 149.651 27.9581C149.459 27.9581 149.318 28.0215 149.232 28.1465C149.146 28.2715 149.102 28.5181 149.102 28.8825V32.5802C149.102 32.6965 149.116 32.8074 149.146 32.913C149.174 33.0187 149.208 33.1102 149.246 33.1877C149.343 33.3427 149.529 33.5205 149.809 33.7212C150.086 33.9237 150.487 34.2072 151.006 34.5735C151.735 35.0542 152.294 35.5314 152.677 36.0033C153.062 36.4751 153.254 37.183 153.254 38.1268V42.9796C153.254 44.2315 152.955 45.1366 152.361 45.6947C151.765 46.2529 150.842 46.5329 149.593 46.5329C148.343 46.5329 147.376 46.2547 146.81 45.6947L146.808 45.6965Z" fill="white"/>
<path d="M160 46.304H154.291V25.5071H159.942V28.4828H157.347V34.2882H159.742V37.2922H157.347V43.2719H160V46.304Z" fill="white"/>
<path d="M88.808 69.5853H87.0784L86.9343 71.5786H83.9355L86.3296 50.7817H89.5023L92.0106 71.5786H88.9838L88.8115 69.5853H88.808ZM87.3086 66.8402H88.5777L88.0873 60.8024L87.9432 57.0766L87.7709 60.8024L87.3104 66.8402H87.3086Z" fill="#FFD700"/>
<path d="M92.5854 71.5786V50.7817H95.7582V68.4303H98.6409V71.5786H92.5854Z" fill="#FFD700"/>
<path d="M106.051 71.5786H103.283V50.7817H105.589L107.751 59.4765L109.913 50.7817H112.249V71.5786H109.481V62.7974L110.029 57.8284L109.769 59.2441L108.039 65.657H107.491L105.761 59.2741L105.531 57.9746L106.05 62.8855V71.5803L106.051 71.5786Z" fill="#FFD700"/>
<path d="M114.371 70.9588C113.747 70.3918 113.434 69.4427 113.434 68.1133V50.7817H116.549V67.7946C116.549 68.1608 116.587 68.4215 116.665 68.5746C116.742 68.7296 116.906 68.8053 117.155 68.8053C117.385 68.8053 117.54 68.7331 117.616 68.5887C117.693 68.4443 117.732 68.1802 117.732 67.7946V50.7817H120.846V68.1133C120.846 69.4427 120.53 70.39 119.896 70.9588C119.261 71.5275 118.349 71.811 117.157 71.811C115.965 71.811 114.998 71.5275 114.374 70.9588H114.371Z" fill="#FFD700"/>
<path d="M124.736 71.5786H122.026V50.7817H124.476L126.726 61.1229L127.13 63.058L126.842 59.9379V50.7817H129.581V71.5786H127.158L124.852 61.2092L124.536 59.6209L124.738 62.3942V71.5803L124.736 71.5786Z" fill="#FFD700"/>
<path d="M130.792 50.7817H134.569C135.761 50.7817 136.689 51.0423 137.352 51.5617C138.014 52.0812 138.347 53.0056 138.347 54.335V68.027C138.347 69.3564 137.995 70.2791 137.294 70.8003C136.592 71.3197 135.655 71.5803 134.483 71.5803H130.792V50.7834V50.7817ZM133.906 53.4106V68.8071H134.367C134.636 68.8071 134.838 68.7155 134.972 68.5324C135.105 68.3493 135.174 68.0851 135.174 67.7383V54.423C135.174 54.0374 135.105 53.7733 134.972 53.6289C134.836 53.4845 134.634 53.4123 134.367 53.4123H133.906V53.4106Z" fill="#FFD700"/>
<path d="M140.478 70.9588C139.786 70.3918 139.441 69.4427 139.441 68.1133V54.2188C139.441 52.9862 139.788 52.0671 140.478 51.4596C141.171 50.8539 142.103 50.5493 143.275 50.5493C144.447 50.5493 145.398 50.8521 146.072 51.4596C146.745 52.0653 147.081 52.9862 147.081 54.2188V68.1133C147.081 69.4427 146.729 70.39 146.028 70.9588C145.326 71.5275 144.398 71.811 143.245 71.811C142.092 71.811 141.169 71.5275 140.477 70.9588H140.478ZM143.78 68.6187C143.866 68.4549 143.91 68.1609 143.91 67.7383V54.423C143.91 54.0004 143.866 53.7117 143.78 53.5567C143.693 53.4035 143.516 53.3261 143.247 53.3261C142.997 53.3261 142.829 53.4088 142.742 53.5708C142.656 53.7346 142.612 54.018 142.612 54.423V67.7383C142.612 68.1626 142.66 68.4567 142.757 68.6187C142.853 68.7824 143.025 68.8634 143.275 68.8634C143.525 68.8634 143.693 68.7824 143.78 68.6187Z" fill="#FFD700"/>
</g>
<defs>
<clipPath id="clip0_94_7">
<rect width="160" height="71.811" fill="white"/>
</clipPath>
</defs>
</svg>
