<svg width="29" height="24" viewBox="0 0 29 24" fill="none" xmlns="http://www.w3.org/2000/svg">
<path d="M4.33952 4.14097C11.2961 8.97253 17.4468 14.9043 22.531 21.6853C22.7355 22.0109 23.0522 22.2532 23.4169 22.363C23.7816 22.4727 24.167 22.4417 24.4951 22.2763C24.8178 22.0958 25.0497 21.7917 25.1408 21.4297C25.2319 21.0676 25.175 20.6766 24.9823 20.341C19.597 13.1321 13.0728 6.8268 5.68848 1.69434C5.35284 1.50162 4.96186 1.44469 4.5998 1.53582C4.23775 1.62695 3.93361 1.8588 3.75306 2.18145C3.58226 2.50713 3.54793 2.89313 3.65727 3.25847C3.76661 3.6238 4.01112 3.94009 4.33952 4.14097Z" fill="#FFD700"/>
<path d="M7.40614 21.2993C8.10803 19.5567 9.57733 17.9912 10.7827 16.5584C12.1027 14.9819 13.4885 13.465 14.94 12.0077C17.8613 9.07487 21.0344 6.40532 24.4185 4.03336C24.7465 3.83095 24.9907 3.51425 25.1007 3.14867C25.2107 2.7831 25.1781 2.39666 25.0095 2.06928C24.829 1.74663 24.5249 1.51474 24.1628 1.42361C23.8008 1.33248 23.4098 1.3894 23.0741 1.58212C19.3823 4.15862 15.9242 7.06616 12.7462 10.2659C11.1826 11.8294 9.71091 13.4848 8.30939 15.2012C6.90786 16.9176 5.48011 18.6077 4.6625 20.6497C4.55935 21.019 4.60358 21.4064 4.78565 21.7283C4.96773 22.0501 5.27309 22.2806 5.63577 22.3701C5.9999 22.444 6.38596 22.3742 6.71503 22.1752C7.0441 21.9762 7.2913 21.6629 7.40614 21.2993Z" fill="#FFD700"/>
</svg>
