<svg width="30" height="18" viewBox="0 0 30 18" fill="none" xmlns="http://www.w3.org/2000/svg">
<path d="M1.88506 4.00728C10.2206 2.50465 18.7641 2.34991 27.1541 3.54964C27.529 3.63533 27.9242 3.58272 28.2597 3.40244C28.5952 3.22216 28.8458 2.92772 28.9609 2.57876C29.0614 2.22295 29.0103 1.84395 28.8187 1.5235C28.6272 1.20305 28.3104 0.966814 27.9368 0.865761C19.0314 -0.423693 9.95963 -0.268937 1.1089 1.32339C0.735292 1.42445 0.418568 1.66066 0.226995 1.98111C0.0354219 2.30156 -0.0156943 2.68056 0.0847884 3.03637C0.194302 3.38744 0.442977 3.68466 0.778623 3.86568C1.11427 4.0467 1.51081 4.09745 1.88506 4.00728Z" fill="#FFD700"/>
<path d="M1.46761 10.2965C10.128 9.3639 18.8561 9.12807 27.5585 9.59155C29.4435 9.6905 29.437 6.90767 27.5585 6.80872C18.8561 6.34524 10.128 6.58107 1.46761 7.5137C1.0815 7.52309 0.713985 7.67271 0.440873 7.93164C0.16776 8.19058 0.00990517 8.53905 0 8.90511C0.00340529 9.27314 0.159131 9.62519 0.433627 9.88543C0.708123 10.1457 1.07943 10.2933 1.46761 10.2965Z" fill="#FFD700"/>
<path d="M2.57653 16.833C4.30506 16.0971 6.45098 16.0291 8.31648 15.8683C10.3646 15.6869 12.4171 15.5942 14.474 15.59C18.6135 15.582 22.7449 15.938 26.815 16.6537C27.19 16.7425 27.5866 16.6912 27.9229 16.5105C28.2592 16.3298 28.5094 16.0335 28.6217 15.6828C28.7222 15.327 28.6711 14.948 28.4796 14.6275C28.288 14.3071 27.9713 14.0709 27.5977 13.9698C23.1653 13.1811 18.6641 12.7919 14.1544 12.8072C11.9432 12.8072 9.73193 12.9371 7.52726 13.1597C5.32258 13.3823 3.11791 13.5678 1.09587 14.4336C0.761768 14.6218 0.519108 14.927 0.420264 15.2834C0.32142 15.6397 0.374359 16.0186 0.567567 16.3383C0.772811 16.648 1.09508 16.8717 1.4685 16.9637C1.84192 17.0556 2.23825 17.0089 2.57653 16.833Z" fill="#FFD700"/>
</svg>
