<svg width="160" height="98" viewBox="0 0 160 98" fill="none" xmlns="http://www.w3.org/2000/svg">
<g clip-path="url(#clip0_97_384)">
<path d="M54.744 0H22.6763L0 22.6763V54.744L22.6763 77.4203H54.744L77.4203 54.744V22.6763L54.744 0Z" fill="black"/>
<path d="M53.674 2.57968H23.7431L2.57959 23.7432V53.6771L23.7431 74.8406H53.674L74.8376 53.6771V23.7432L53.674 2.57968Z" fill="white"/>
<path d="M52.6072 5.16235H24.8132L5.15942 24.8131V52.6072L24.8132 72.258H52.6072L72.258 52.6072V24.8131L52.6072 5.16235Z" fill="black"/>
<path d="M18.0371 32.0648H16.343L19.0862 24.7121H20.9407L23.6541 32.0648H21.9214L21.4281 30.5491H18.5869L18.0371 32.0648ZM19 29.2771H20.9615L20.0075 26.3705H19.9867L19 29.2771Z" fill="white"/>
<path d="M26.2961 30.7333H30.1211V32.0648H24.6853V24.7121H26.2961V30.7333Z" fill="white"/>
<path d="M33.5448 32.0648H31.9369V26.0079H29.6099V24.7091H35.8718V26.0079H33.5448V32.0648Z" fill="white"/>
<path d="M39.7534 24.5219C40.7698 24.5219 43.4505 24.9409 43.4505 28.3855C43.4505 31.83 40.7757 32.2491 39.7534 32.2491C38.731 32.2491 36.0532 31.83 36.0532 28.3855C36.0532 24.9409 38.7369 24.5219 39.7534 24.5219ZM39.7534 30.9652C40.6212 30.9652 41.8337 30.454 41.8337 28.3944C41.8337 26.3348 40.6123 25.8236 39.7534 25.8236C38.8944 25.8236 37.673 26.3348 37.673 28.3944C37.673 30.454 38.8855 30.9592 39.7534 30.9592V30.9652Z" fill="white"/>
<path d="M53.3889 26.0079H49.3024V27.5563H53.0561V28.8551H49.3024V30.7631H53.5702V32.0648H47.7273V24.7121H53.3741L53.3889 26.0079Z" fill="white"/>
<path d="M59.5795 24.7121H61.0655V32.0648H59.4577L56.3193 26.8222H56.2985V32.0648H54.7976V24.7121H56.4887L59.5468 29.8328H59.5676L59.5795 24.7121Z" fill="white"/>
<path d="M20.5929 38.4248H23.8086V42.3865H22.7387L22.5753 41.4652C22.2943 41.8308 21.9293 42.1232 21.5113 42.3177C21.0933 42.5123 20.6345 42.6031 20.1739 42.5827C18.3194 42.5827 16.6372 41.3106 16.6372 38.7191C16.6372 36.7219 17.7933 34.8287 20.3789 34.8287H20.3998C22.7595 34.8287 23.6897 36.291 23.7759 37.3044H22.1681C22.1681 37.0072 21.6212 36.0978 20.4859 36.0978C19.3506 36.0978 18.2778 36.8556 18.2778 38.7399C18.2778 40.746 19.425 41.269 20.5186 41.269C20.8723 41.269 22.0522 41.1353 22.385 39.6523H20.6018L20.5929 38.4248Z" fill="white"/>
<path d="M25.3242 35.0338H29.2175C31.2622 35.0338 31.6397 36.4782 31.6397 37.1142C31.6587 37.4955 31.553 37.8727 31.3385 38.1886C31.124 38.5044 30.8124 38.7418 30.4509 38.8647C31.0839 39.1322 31.4287 39.3551 31.4287 40.7281C31.4287 41.804 31.4287 42.0685 31.7705 42.1933V42.3865H29.9873C29.8522 41.9033 29.794 41.4018 29.8149 40.9005C29.8149 39.896 29.7525 39.5067 28.5637 39.5067H26.8994V42.3835H25.3242V35.0338ZM28.7866 38.2703C29.6247 38.2703 30.0318 37.9939 30.0318 37.2658C30.0318 36.8764 29.8476 36.3029 28.9055 36.3029H26.8994V38.2703H28.7866Z" fill="white"/>
<path d="M33.9489 42.3865H32.2549L34.998 35.0338H36.8555L39.566 42.3865H37.8184L37.3251 40.8708H34.4839L33.9489 42.3865ZM34.9118 39.6018H36.8763L35.9193 36.707H35.8896L34.9118 39.6018Z" fill="white"/>
<path d="M41.48 40.1248C41.48 40.532 41.7029 41.3136 43.1087 41.3136C43.8695 41.3136 44.7165 41.1412 44.7165 40.3626C44.7165 39.789 44.1221 39.6344 43.3227 39.4502L42.4965 39.2659C41.2542 38.9925 40.0535 38.722 40.0535 37.1053C40.0535 36.288 40.5142 34.8436 43.0255 34.8436C45.3852 34.8436 46.0183 36.3296 46.0272 37.2212H44.4847C44.4431 36.8943 44.3123 36.1156 42.9096 36.1156C42.2973 36.1156 41.5692 36.3296 41.5692 37.0072C41.5692 37.5808 42.0625 37.7056 42.3835 37.777L44.2588 38.2168C45.3109 38.4605 46.2768 38.8706 46.2768 40.1932C46.2768 42.4043 43.9171 42.6005 43.2424 42.6005C40.4339 42.6005 39.9495 41.0521 39.9495 40.1427L41.48 40.1248Z" fill="white"/>
<path d="M48.4701 42.3865H46.7791L49.5222 35.0338H51.3767L54.0901 42.3865H52.3426L51.8493 40.8678H49.008L48.4701 42.3865ZM49.436 39.6018H51.3975L50.4524 36.707H50.4316L49.436 39.6018Z" fill="white"/>
<path d="M56.0011 40.1248C56.0011 40.532 56.227 41.3136 57.6327 41.3136C58.3936 41.3136 59.2406 41.1412 59.2406 40.3626C59.2406 39.789 58.6462 39.6344 57.8437 39.4502L57.0205 39.2659C55.7782 38.9925 54.5746 38.722 54.5746 37.1053C54.5746 36.288 55.0382 34.8436 57.5466 34.8436C59.9063 34.8436 60.5364 36.3296 60.5483 37.2212H59.0028C58.9612 36.8943 58.8334 36.1156 57.4277 36.1156C56.8333 36.1156 56.0873 36.3296 56.0873 37.0072C56.0873 37.5808 56.5836 37.7056 56.9046 37.777L58.774 38.193C59.8261 38.4367 60.789 38.8469 60.789 40.1694C60.789 42.3806 58.4322 42.5767 57.7546 42.5767C54.9461 42.5767 54.4646 41.0283 54.4646 40.1189L56.0011 40.1248Z" fill="white"/>
<path d="M7.99469 50.4465C7.99469 50.8567 8.22056 51.6353 9.62631 51.6353C10.3871 51.6353 11.2341 51.46 11.2341 50.6813C11.2341 50.1107 10.6546 49.9562 9.84029 49.7719L9.01408 49.5847C7.77179 49.3113 6.56814 49.0438 6.56814 47.424C6.56814 46.6067 7.0288 45.1624 9.54013 45.1624C11.8999 45.1624 12.5329 46.6483 12.5418 47.5399H10.9964C10.9548 47.213 10.827 46.4344 9.42124 46.4344C8.82685 46.4344 8.08087 46.6483 8.08087 47.326C8.08087 47.8996 8.5772 48.0214 8.89817 48.0927L10.7735 48.5326C11.8256 48.7793 12.7885 49.1894 12.7885 50.509C12.7885 52.7231 10.4317 52.9163 9.75411 52.9163C6.94558 52.9163 6.46411 51.3708 6.46411 50.4584L7.99469 50.4465Z" fill="white"/>
<path d="M14.9878 52.7112H13.3027L16.0459 45.3555H17.9004L20.6138 52.7112H18.8604L18.367 51.1955H15.5258L14.9878 52.7112ZM15.9537 49.9235H17.9182L16.9613 47.0169H16.9404L15.9537 49.9235Z" fill="white"/>
<path d="M23.9454 52.7112H22.3376V46.6573H20.0105V45.3555H26.2695V46.6573H23.9454V52.7112Z" fill="white"/>
<path d="M33.3933 50.1375C33.3933 52.0752 32.1718 52.9044 30.2311 52.9044C29.5238 52.9044 28.4717 52.7409 27.7851 52.0128C27.3716 51.5133 27.1596 50.8773 27.1907 50.2296V45.3555H28.8283V50.1285C28.8283 51.1539 29.4524 51.6145 30.2014 51.6145C31.307 51.6145 31.7557 51.1034 31.7557 50.2118V45.3555H33.3963L33.3933 50.1375Z" fill="white"/>
<path d="M34.9744 45.3555H38.8618C40.9095 45.3555 41.2869 46.7999 41.2869 47.4359C41.3064 47.8174 41.2009 48.1947 40.9863 48.5107C40.7717 48.8267 40.4599 49.0639 40.0981 49.1864C40.7312 49.4539 41.0729 49.6798 41.0729 51.0499C41.0729 52.1257 41.0729 52.3932 41.4177 52.5151V52.7112H39.6345C39.4983 52.2282 39.4401 51.7266 39.4621 51.2252C39.4621 50.2207 39.3967 49.8313 38.2079 49.8313H36.5466V52.7112H34.9714L34.9744 45.3555ZM38.4368 48.595C39.2719 48.595 39.6791 48.3186 39.6791 47.5934C39.6791 47.2041 39.4978 46.6305 38.5557 46.6305H36.5496V48.595H38.4368Z" fill="white"/>
<path d="M43.5961 52.7112H41.905L44.6482 45.3555H46.5027L49.2161 52.7112H47.4805L46.9871 51.1955H44.1459L43.5961 52.7112ZM44.562 49.9235H46.5235L45.5695 47.0169H45.5487L44.562 49.9235Z" fill="white"/>
<path d="M50.2505 45.3555H53.6475C56.242 45.3555 56.777 47.4656 56.777 48.8595C56.777 50.4376 56.1231 52.7231 53.5821 52.7231H50.2505V45.3555ZM51.8256 51.4392H53.3919C54.6966 51.4392 55.1364 50.182 55.1364 48.9724C55.1364 46.7999 54.0546 46.6275 53.3532 46.6275H51.8108L51.8256 51.4392Z" fill="white"/>
<path d="M58.6581 52.7112H56.9641L59.7102 45.3555H61.5648L64.2752 52.7112H62.5277L62.0343 51.1955H59.1931L58.6581 52.7112ZM59.6211 49.9235H61.5856L60.6286 47.0169H60.6078L59.6211 49.9235Z" fill="white"/>
<path d="M66.1863 50.4465C66.1863 50.8567 66.4122 51.6353 67.8179 51.6353C68.5788 51.6353 69.4258 51.46 69.4258 50.6813C69.4258 50.1107 68.8314 49.9562 68.0319 49.7719L67.2057 49.5847C65.9634 49.3113 64.7598 49.0438 64.7598 47.424C64.7598 46.6067 65.2234 45.1624 67.7317 45.1624C70.0915 45.1624 70.7245 46.6483 70.7334 47.5399H69.1761C69.1315 47.213 69.0038 46.4344 67.598 46.4344C66.9887 46.4344 66.2576 46.6483 66.2576 47.326C66.2576 47.8996 66.754 48.0214 67.0749 48.0927L68.9503 48.5326C70.0023 48.7793 70.9653 49.1894 70.9653 50.509C70.9653 52.7231 68.6085 52.9163 67.9309 52.9163C65.1253 52.9163 64.6409 51.3708 64.6409 50.4584L66.1863 50.4465Z" fill="white"/>
<path d="M137.327 0H105.259L82.5796 22.6763V54.744L105.259 77.4203H137.327L160 54.744V22.6763L137.327 0Z" fill="black"/>
<path d="M136.257 2.57968H106.326L85.1624 23.7432V53.6771L106.326 74.8406H136.257L157.42 53.6771V23.7432L136.257 2.57968Z" fill="white"/>
<path d="M135.187 5.16235H107.396L87.7419 24.8131V52.6072L107.396 72.258H135.187L154.841 52.6072V24.8131L135.187 5.16235Z" fill="black"/>
<path d="M99.8261 35.9373H98.0637L100.917 28.5816H102.843L105.657 35.9373H103.844L103.333 34.4186H100.382L99.8261 35.9373ZM100.828 33.1407H102.863L101.868 30.24H101.844L100.828 33.1407Z" fill="white"/>
<path d="M108.406 34.6029H112.383V35.9373H106.736V28.5816H108.406V34.6029Z" fill="white"/>
<path d="M115.928 35.9373H114.258V29.8715H111.845V28.5697H118.345V29.8715H115.928V35.9373Z" fill="white"/>
<path d="M122.375 28.3855C123.43 28.3855 126.215 28.8045 126.215 32.2491C126.215 35.6936 123.43 36.1126 122.375 36.1126C121.32 36.1126 118.535 35.6936 118.535 32.2491C118.535 28.8045 121.32 28.3855 122.375 28.3855ZM122.375 34.8258C123.266 34.8258 124.544 34.3146 124.544 32.255C124.544 30.1954 123.275 29.6842 122.375 29.6842C121.474 29.6842 120.205 30.1984 120.205 32.255C120.205 34.3116 121.483 34.8287 122.375 34.8287V34.8258Z" fill="white"/>
<path d="M136.533 29.8715H132.289V31.4169H136.188V32.7186H132.289V34.6267H136.72V35.9284H130.655V28.5816H136.533V29.8715Z" fill="white"/>
<path d="M142.959 28.5816H144.516V35.9373H142.849L139.579 30.6917H139.559V35.9373H137.998V28.5816H139.758L142.932 33.7024H142.953L142.959 28.5816Z" fill="white"/>
<path d="M117.441 40.7489H116.303L117.364 39.2629H119.105L117.441 40.7489Z" fill="white"/>
<path d="M99.8469 48.8387H98.0637L100.955 41.486H102.905L105.758 48.8387H103.921L103.401 47.323H100.412L99.8469 48.8387ZM100.863 46.0539H102.944L101.939 43.1444H101.918L100.863 46.0539Z" fill="white"/>
<path d="M112.6 48.8387H106.272V47.537L110.454 42.7818H106.382V41.483H112.567V42.6897L108.326 47.534H112.591L112.6 48.8387Z" fill="white"/>
<path d="M120.229 46.2679C120.229 48.2057 118.945 49.0348 116.9 49.0348C116.157 49.0348 115.052 48.8714 114.329 48.1432C113.896 47.653 113.669 47.0139 113.696 46.3601V41.486H115.423V46.259C115.423 47.2814 116.077 47.745 116.867 47.745C118.029 47.745 118.502 47.2338 118.502 46.3422V41.4979H120.229V46.2679Z" fill="white"/>
<path d="M127.058 43.8933C126.925 43.4535 126.663 42.6213 125.275 42.6213C124.464 42.6213 123.266 43.1147 123.266 45.1921C123.266 46.5146 123.843 47.7034 125.275 47.7034C125.691 47.7328 126.103 47.6077 126.432 47.3521C126.761 47.0965 126.984 46.7284 127.058 46.3185H128.749C128.414 47.9174 127.263 49.0349 125.231 49.0349C123.076 49.0349 121.531 47.7123 121.531 45.1713C121.531 42.6302 123.168 41.3077 125.251 41.3077C127.677 41.3077 128.66 42.8204 128.749 43.9082L127.058 43.8933Z" fill="white"/>
<path d="M130.741 48.8387H128.958L131.843 41.486H133.796L136.64 48.8387H134.8L134.28 47.323H131.291L130.741 48.8387ZM131.754 46.0539H133.835L132.83 43.1444H132.806L131.754 46.0539Z" fill="white"/>
<path d="M137.74 41.486H141.832C143.987 41.486 144.382 42.9304 144.382 43.5664C144.397 43.9559 144.282 44.3393 144.056 44.6565C143.829 44.9738 143.504 45.2071 143.131 45.3199C143.794 45.5844 144.156 45.8102 144.156 47.1833C144.156 48.2592 144.156 48.5237 144.516 48.6485V48.8417H142.647C142.503 48.3601 142.441 47.8577 142.465 47.3557C142.465 46.3511 142.397 45.9618 141.146 45.9618H139.398V48.8387H137.74V41.486ZM141.395 44.7314C142.287 44.7314 142.703 44.455 142.703 43.7269C142.703 43.3375 142.51 42.7639 141.514 42.7639H139.407V44.7314H141.395Z" fill="white"/>
<path d="M121.293 80.003H38.7102V97.0355H121.293V80.003Z" fill="black"/>
<path d="M120.517 80.7757H39.4829V96.2598H120.517V80.7757Z" fill="white"/>
<path d="M48.1582 83.0701H45.623V84.1014H47.9531V84.9662H45.623V86.2382H48.2711V87.1061H44.6453V82.2023H48.1582V83.0701Z" fill="black"/>
<path d="M51.8522 82.1963H52.8924L51.2667 87.1001H50.3156L48.7048 82.1963H49.7747L50.8031 85.9113L51.8522 82.1963Z" fill="black"/>
<path d="M54.4409 87.1001H53.4453V82.1963H54.4409V87.1001Z" fill="black"/>
<path d="M57.404 87.1001H56.3965V83.0701H54.9551V82.2023H58.8395V83.0701H57.3951L57.404 87.1001Z" fill="black"/>
<path d="M59.523 87.1001H58.4768L60.1827 82.1963H61.3329L63.015 87.1001H61.9303L61.6331 86.0867H59.8736L59.523 87.1001ZM60.1174 85.2426H61.3359L60.7415 83.3019L60.1174 85.2426Z" fill="black"/>
<path d="M63.6482 82.1963H66.0644C67.3335 82.1963 67.5653 83.1592 67.5653 83.5813C67.5826 83.829 67.5204 84.0758 67.3879 84.2859C67.2553 84.4959 67.0593 84.6582 66.8282 84.7493C67.2205 84.9276 67.4226 85.0791 67.4226 85.9915C67.4226 86.7108 67.4226 86.8831 67.6336 86.9693V87.1001H66.531C66.4469 86.7762 66.4109 86.4418 66.424 86.1075C66.424 85.4388 66.3854 85.1802 65.6454 85.1802H64.6141V87.1001H63.6482V82.1963ZM65.7969 84.354C66.317 84.354 66.5696 84.1697 66.5696 83.6853C66.5785 83.5938 66.566 83.5015 66.5331 83.4156C66.5003 83.3297 66.4479 83.2527 66.3803 83.1904C66.3126 83.1282 66.2314 83.0826 66.143 83.057C66.0547 83.0315 65.9617 83.0268 65.8712 83.0433H64.626V84.354H65.7969Z" fill="black"/>
<path d="M71.0156 85.5903C71.0156 85.8637 71.1553 86.3809 72.029 86.3809C72.4986 86.3809 73.0247 86.265 73.0247 85.7449C73.0247 85.3644 72.665 85.2604 72.1598 85.1505L71.6486 85.0286C70.8759 84.8443 70.1299 84.666 70.1299 83.5872C70.1299 83.0403 70.4271 82.0774 71.9666 82.0774C73.4318 82.0774 73.8241 83.0611 73.83 83.6615H72.8731C72.8463 83.4445 72.7661 82.9244 71.8953 82.9244C71.5149 82.9244 71.0631 83.0671 71.0631 83.5188C71.0631 83.8993 71.3603 83.9825 71.5684 84.03L72.7304 84.3272C73.3843 84.4907 73.9846 84.7641 73.9846 85.6438C73.9846 87.1298 72.5194 87.2487 72.1004 87.2487C70.3588 87.2487 70.0586 86.2174 70.0586 85.6111L71.0156 85.5903Z" fill="black"/>
<path d="M78.5704 85.3853C78.5704 86.6751 77.8096 87.2279 76.6059 87.2279C76.3258 87.2399 76.0463 87.1932 75.7853 87.0909C75.5243 86.9885 75.2875 86.8327 75.0902 86.6335C74.8288 86.2939 74.6962 85.8728 74.7158 85.4447V82.1963H75.7352V85.3764C75.7352 86.0599 76.1215 86.363 76.5881 86.363C77.2717 86.363 77.551 86.0213 77.551 85.4269V82.1963H78.5704V85.3853Z" fill="black"/>
<path d="M84.4461 83.8012C84.4141 83.5509 84.2862 83.3228 84.0895 83.1648C83.8927 83.0069 83.6424 82.9314 83.3911 82.9542C82.9096 82.9542 82.2023 83.2811 82.2023 84.669C82.2023 85.5606 82.5441 86.3393 83.3911 86.3393C83.6512 86.3489 83.9051 86.2589 84.1012 86.0877C84.2972 85.9165 84.4206 85.677 84.4461 85.418H85.4447C85.2456 86.4849 84.5531 87.2279 83.3643 87.2279C82.0923 87.2279 81.1799 86.3363 81.1799 84.6542C81.1799 82.972 82.1458 82.0656 83.3762 82.0656C84.8058 82.0656 85.3853 83.076 85.4388 83.8012H84.4461Z" fill="black"/>
<path d="M88.289 82.0656C88.9191 82.0656 90.5834 82.3479 90.5834 84.6482C90.5834 86.9485 88.9191 87.2279 88.289 87.2279C87.6589 87.2279 85.9946 86.9485 85.9946 84.6482C85.9946 82.3479 87.656 82.0656 88.289 82.0656ZM88.289 86.363C88.8269 86.363 89.5848 86.0213 89.5848 84.6482C89.5848 83.2752 88.8269 82.9334 88.289 82.9334C87.7511 82.9334 86.9902 83.2752 86.9902 84.6482C86.9902 86.0213 87.7481 86.363 88.289 86.363Z" fill="black"/>
<path d="M94.2983 82.1963H95.2285V87.1001H94.2329L92.2833 83.6021V87.1001H91.3501V82.1963H92.4022L94.2953 85.6111L94.2983 82.1963Z" fill="black"/>
<path d="M96.9018 85.5903C96.9018 85.8637 97.0415 86.3809 97.9123 86.3809C98.3848 86.3809 98.9109 86.265 98.9109 85.7449C98.9109 85.3644 98.5513 85.2604 98.046 85.1505L97.5348 85.0286C96.7621 84.8443 96.0161 84.666 96.0161 83.5872C96.0161 83.0403 96.3133 82.0774 97.8528 82.0774C99.318 82.0774 99.7074 83.0611 99.7163 83.6615H98.7563C98.7296 83.4445 98.6493 82.9244 97.7785 82.9244C97.4011 82.9244 96.9494 83.0671 96.9494 83.5188C96.9494 83.8993 97.2466 83.9825 97.4546 84.03L98.6196 84.3272C99.2705 84.4907 99.8679 84.7641 99.8679 85.6438C99.8679 87.1298 98.4056 87.2487 97.9866 87.2487C96.242 87.2487 95.9448 86.2174 95.9448 85.6111L96.9018 85.5903Z" fill="black"/>
<path d="M104.453 85.3853C104.453 86.6751 103.696 87.2279 102.492 87.2279C102.212 87.2399 101.932 87.1932 101.671 87.0909C101.41 86.9885 101.173 86.8327 100.976 86.6335C100.716 86.2932 100.584 85.8726 100.602 85.4447V82.1963H101.621V85.3764C101.621 86.0599 102.007 86.363 102.471 86.363C103.155 86.363 103.437 86.0213 103.437 85.4269V82.1963H104.453V85.3853Z" fill="black"/>
<path d="M110.017 87.1001H109.087V83.0017L108.195 87.1001H107.217L106.326 83.0017V87.1001H105.393V82.1963H106.852L107.717 86.0599L108.57 82.1963H110.011L110.017 87.1001Z" fill="black"/>
<path d="M113.063 82.0656C113.694 82.0656 115.355 82.3479 115.355 84.6482C115.355 86.9485 113.694 87.2279 113.063 87.2279C112.433 87.2279 110.766 86.9485 110.766 84.6482C110.766 82.3479 112.43 82.0656 113.063 82.0656ZM113.063 86.363C113.601 86.363 114.359 86.0213 114.359 84.6482C114.359 83.2752 113.601 82.9334 113.063 82.9334C112.526 82.9334 111.765 83.2752 111.765 84.6482C111.765 86.0213 112.523 86.363 113.063 86.363Z" fill="black"/>
<path d="M67.256 90.7972H64.7179V91.8285H67.045V92.6934H64.7179V93.9654H67.363V94.8332H63.7461V89.9294H67.256V90.7972Z" fill="black"/>
<path d="M72.0173 94.8421H70.8018L69.9102 93.1689L68.9443 94.8421H67.7822L69.3217 92.3338L67.8684 89.9384H69.0572L69.9102 91.5224L70.778 89.9384H71.9282L70.4719 92.2922L72.0173 94.8421Z" fill="black"/>
<path d="M75.2982 91.5432C75.2647 91.293 75.1361 91.0653 74.939 90.9076C74.742 90.7498 74.4916 90.6741 74.2402 90.6962C73.7617 90.6962 73.0514 91.0231 73.0514 92.411C73.0514 93.3026 73.3902 94.0813 74.2402 94.0813C74.5006 94.0909 74.7549 94.0011 74.9514 93.8299C75.1479 93.6588 75.2719 93.4193 75.2982 93.16H76.3087C76.1095 94.2269 75.4171 94.9699 74.2283 94.9699C72.9592 94.9699 72.0498 94.0783 72.0498 92.3962C72.0498 90.714 73.0127 89.8076 74.2431 89.8076C75.6727 89.8076 76.2522 90.8181 76.3027 91.5432H75.2982Z" fill="black"/>
<path d="M80.5675 90.7972H78.0324V91.8285H80.3595V92.6934H78.0324V93.9654H80.6775V94.8332H77.0576V89.9294H80.5675V90.7972Z" fill="black"/>
<path d="M82.2051 93.3324C82.2051 93.6058 82.3418 94.1229 83.2126 94.1229C83.6852 94.1229 84.2112 94.007 84.2112 93.4899C84.2112 93.1065 83.8516 93.0025 83.3464 92.8806L82.8471 92.7588C82.0744 92.5745 81.3314 92.3962 81.3314 91.3174C81.3314 90.7705 81.6286 89.8076 83.1651 89.8076C84.6303 89.8076 85.0196 90.7913 85.0285 91.3917H84.0715C84.0448 91.1747 83.9646 90.6546 83.0938 90.6546C82.7134 90.6546 82.2616 90.7973 82.2616 91.249C82.2616 91.6324 82.5588 91.7126 82.7668 91.7602L83.9289 92.0574C84.5827 92.2208 85.1801 92.4943 85.1801 93.374C85.1801 94.86 83.7179 94.9788 83.2988 94.9788C81.5572 94.9788 81.2571 93.9476 81.2571 93.3413L82.2051 93.3324Z" fill="black"/>
<path d="M86.8475 94.8421H85.8489V89.9384H86.8475V94.8421Z" fill="black"/>
<path d="M90.5445 89.9384H91.5817L89.959 94.8421H89.008L87.4001 89.9384H88.4701L89.4954 93.6533L90.5445 89.9384Z" fill="black"/>
<path d="M93.9624 89.8076C94.5954 89.8076 96.2567 90.0899 96.2567 92.3902C96.2567 94.6906 94.5954 94.958 93.9624 94.958C93.3293 94.958 91.668 94.6787 91.668 92.3784C91.668 90.078 93.3323 89.8076 93.9624 89.8076ZM93.9624 94.1051C94.5003 94.1051 95.2611 93.7633 95.2611 92.3902C95.2611 91.0172 94.5003 90.6754 93.9624 90.6754C93.4244 90.6754 92.6695 91.0172 92.6695 92.3902C92.6695 93.7633 93.4274 94.1051 93.9624 94.1051Z" fill="black"/>
</g>
<defs>
<clipPath id="clip0_97_384">
<rect width="160" height="97.0355" fill="white"/>
</clipPath>
</defs>
</svg>
