<svg width="27" height="27" viewBox="0 0 27 27" fill="none" xmlns="http://www.w3.org/2000/svg">
<g clip-path="url(#clip0_391_252)">
<path fill-rule="evenodd" clip-rule="evenodd" d="M13.3714 0C20.6506 0 26.5583 5.90771 26.5583 13.1869C26.5583 20.466 20.6506 26.3737 13.3714 26.3737C6.09228 26.3737 0.18457 20.466 0.18457 13.1869C0.18457 5.90771 6.09228 0 13.3714 0ZM21.2677 9.22025C21.0778 8.51343 20.5187 7.95431 19.8119 7.76442C18.5248 7.42156 13.3714 7.42156 13.3714 7.42156C13.3714 7.42156 8.218 7.42156 6.93096 7.76442C6.22415 7.95431 5.66503 8.51343 5.47513 9.22025C5.13228 10.5073 5.13228 13.1869 5.13228 13.1869C5.13228 13.1869 5.13228 15.8664 5.47513 17.1535C5.66503 17.8603 6.22415 18.4194 6.93096 18.6093C8.218 18.9521 13.3714 18.9521 13.3714 18.9521C13.3714 18.9521 18.5248 18.9521 19.8119 18.6093C20.5187 18.4194 21.0778 17.8603 21.2677 17.1535C21.6106 15.8664 21.6106 13.1869 21.6106 13.1869C21.6106 13.1869 21.6106 10.5073 21.2677 9.22025ZM11.7204 15.6607V10.713L16.0035 13.1869L11.7204 15.6607Z" fill="white"/>
</g>
<defs>
<clipPath id="clip0_391_252">
<rect width="26.3737" height="26.3737" fill="white" transform="translate(0.18457)"/>
</clipPath>
</defs>
</svg>
